HIERARCHY
ROOT Hips
{
	OFFSET 0.000000 0.000000 0.000000
	CHANNELS 6 Xposition Yposition Zposition Xrotation Yrotation Zrotation
	JOINT LeftUpLeg_virtual
	{
		OFFSET 0.000000 0.000000 0.000000
		CHANNELS 3 Xrotation Yrotation Zrotation
		JOINT LeftUpLeg
		{
			OFFSET 11.394100 -6.187798 -0.413800
			CHANNELS 3 Xrotation Yrotation Zrotation
			JOINT LeftLeg
			{
				OFFSET 0.430247 -32.302673 3.732800
				CHANNELS 3 Xrotation Yrotation Zrotation
				JOINT LeftFoot
				{
					OFFSET -0.430247 -48.264931 -6.423300
					CHANNELS 3 Xrotation Yrotation Zrotation
					JOINT LeftToeBase
					{
						OFFSET 4.230900 -16.068199 23.438400
						CHANNELS 3 Xrotation Yrotation Zrotation
						JOINT LeftToe_End
						{
							OFFSET 4.510700 0.695400 19.974600
							CHANNELS 3 Xrotation Yrotation Zrotation
							End Site
							{
								OFFSET 0 0 0
							}
						}
					}
				}
			}
		}
	}
	JOINT RightUpLeg_virtual
	{
		OFFSET 0.000000 0.000000 0.000000
		CHANNELS 3 Xrotation Yrotation Zrotation
		JOINT RightUpLeg
		{
			OFFSET -11.333700 -6.187798 -0.413800
			CHANNELS 3 Xrotation Yrotation Zrotation
			JOINT RightLeg
			{
				OFFSET -0.430392 -32.302628 3.733000
				CHANNELS 3 Xrotation Yrotation Zrotation
				JOINT RightFoot
				{
					OFFSET 0.430392 -48.264973 -6.423500
					CHANNELS 3 Xrotation Yrotation Zrotation
					JOINT RightToeBase
					{
						OFFSET -4.230900 -16.068199 23.438400
						CHANNELS 3 Xrotation Yrotation Zrotation
						JOINT RightToe_End
						{
							OFFSET -4.510700 0.695400 19.974600
							CHANNELS 3 Xrotation Yrotation Zrotation
							End Site
							{
								OFFSET 0 0 0
							}
						}
					}
				}
			}
		}
	}
	JOINT Spine_virtual
	{
		OFFSET 0.000000 0.000000 0.000000
		CHANNELS 3 Xrotation Yrotation Zrotation
		JOINT Spine
		{
			OFFSET -0.002400 12.777504 0.315300
			CHANNELS 3 Xrotation Yrotation Zrotation
			JOINT Spine1
			{
				OFFSET -0.002067 5.816869 0.032633
				CHANNELS 3 Xrotation Yrotation Zrotation
				JOINT Spine1_split
				{
					OFFSET -0.002067 5.816869 0.032633
					CHANNELS 3 Xrotation Yrotation Zrotation
					JOINT Spine2
					{
						OFFSET -0.002067 5.816869 0.032633
						CHANNELS 3 Xrotation Yrotation Zrotation
						JOINT Neck_virtual
						{
							OFFSET 0.000000 0.000000 0.000000
							CHANNELS 3 Xrotation Yrotation Zrotation
							JOINT Neck
							{
								OFFSET -0.003700 21.199493 -0.826900
								CHANNELS 3 Xrotation Yrotation Zrotation
								JOINT Head
								{
									OFFSET 0.000000 20.442200 4.834800
									CHANNELS 3 Xrotation Yrotation Zrotation
									JOINT HeadTop_End
									{
										OFFSET 0.000000 34.668396 4.968400
										CHANNELS 3 Xrotation Yrotation Zrotation
										End Site
										{
											OFFSET 0 0 0
										}
									}
								}
							}
						}
						JOINT LeftShoulder_virtual
						{
							OFFSET 0.000000 0.000000 0.000000
							CHANNELS 3 Xrotation Yrotation Zrotation
							JOINT LeftShoulder
							{
								OFFSET 3.288150 8.794197 -1.372250
								CHANNELS 3 Xrotation Yrotation Zrotation
								JOINT LeftShoulder_split
								{
									OFFSET 3.288150 8.794197 -1.372250
									CHANNELS 3 Xrotation Yrotation Zrotation
									JOINT LeftArm
									{
										OFFSET 11.953299 -2.279007 -0.146200
										CHANNELS 3 Xrotation Yrotation Zrotation
										JOINT LeftForeArm
										{
											OFFSET 18.448900 0.000000 0.000000
											CHANNELS 3 Xrotation Yrotation Zrotation
											JOINT LeftHand
											{
												OFFSET 29.527798 0.000000 0.000000
												CHANNELS 3 Xrotation Yrotation Zrotation
												End Site
												{
													OFFSET 0 0 0
												}
											}
										}
									}
								}
							}
						}
						JOINT RightShoulder_virtual
						{
							OFFSET 0.000000 0.000000 0.000000
							CHANNELS 3 Xrotation Yrotation Zrotation
							JOINT RightShoulder
							{
								OFFSET -3.249400 8.794197 -1.372250
								CHANNELS 3 Xrotation Yrotation Zrotation
								JOINT RightShoulder_split
								{
									OFFSET -3.249400 8.794197 -1.372250
									CHANNELS 3 Xrotation Yrotation Zrotation
									JOINT RightArm
									{
										OFFSET -11.953299 -2.279007 -0.146200
										CHANNELS 3 Xrotation Yrotation Zrotation
										JOINT RightForeArm
										{
											OFFSET -18.448900 0.000000 0.000000
											CHANNELS 3 Xrotation Yrotation Zrotation
											JOINT RightHand
											{
												OFFSET -29.527802 0.000000 0.000000
												CHANNELS 3 Xrotation Yrotation Zrotation
												End Site
												{
													OFFSET 0 0 0
												}
											}
										}
									}
								}
							}
						}
					}
				}
			}
		}
	}
}
MOTION
Frames: 9
Frame Time: 0.03333333
11.213363 150.336838 -15.512932 0.000000 0.000000 0.000000 -90.608880 -5.863982 -1.100655 4.658224 31.754427 8.198260 0.363594 -18.164048 -7.490126 20.257752 32.118002 -12.362243 11.151932 -0.161770 9.092554 0.000000 0.000000 0.000000 -88.660848 -2.730400 1.442673 -0.252211 -11.388724 -7.416424 -1.284240 9.920984 -11.636230 27.050338 -27.638538 22.745911 4.204749 -3.202306 -47.408169 0.000000 0.000000 0.000000 -92.635479 2.950235 5.664396 0.516801 -2.302732 -0.369291 5.352617 -5.546313 2.327340 0.155658 0.769841 -0.159930 0.000000 0.000000 0.000000 3.955529 -2.860973 1.093072 -25.806003 -0.790030 -3.365724 1.301130 -59.794495 21.136068 0.000000 0.000000 0.000000 3.335483 -4.574337 0.192210 -0.876803 -0.406491 -8.022527 3.417934 5.678051 -5.012445 43.997316 -23.500956 -43.804213 17.003869 -70.950366 12.187533 0.000000 0.000000 0.000000 6.332809 -3.137542 1.541268 -3.809831 -2.084581 15.777689 7.826686 5.069857 0.463906 43.704632 37.305855 34.219740 -75.460005 88.753063 66.435508 0.000000 0.000000 0.000000 
11.209145 150.356934 -15.457600 0.000000 0.000000 0.000000 -90.612725 -5.739997 -0.893965 4.719054 31.549689 8.157092 0.305501 -18.154224 -7.500409 20.239133 32.275103 -12.228122 11.268309 -0.143243 8.979304 0.000000 0.000000 0.000000 -88.717737 -2.806025 1.478708 -0.412960 -11.366659 -7.413125 -0.966332 10.090668 -11.692771 26.883479 -27.597888 22.642682 4.395153 -3.266866 -47.446162 0.000000 0.000000 0.000000 -92.751182 2.706762 5.694677 0.446125 -2.403430 -0.377036 5.356830 -5.384783 2.426199 0.063362 0.771873 -0.174171 0.000000 0.000000 0.000000 4.020262 -2.692488 1.074966 -25.929555 -0.919905 -3.303487 1.232491 -60.144747 20.908042 0.000000 0.000000 0.000000 3.564518 -4.424417 0.333205 -0.971612 -0.802404 -8.011520 3.691923 6.050290 -4.952174 43.739825 -23.279890 -43.815052 17.076859 -70.190903 12.129719 0.000000 0.000000 0.000000 6.529427 -2.962580 1.525493 -3.831798 -2.150815 15.329366 8.312282 5.768184 0.007746 41.811450 38.237817 33.973392 -112.666231 89.041816 103.751216 0.000000 0.000000 0.000000 
11.192247 150.400299 -15.362507 0.000000 0.000000 0.000000 -90.543679 -5.716256 -0.681190 4.755491 31.330047 8.114062 0.182908 -18.068248 -7.543193 20.253104 32.510365 -12.181874 11.338966 -0.126603 8.821649 0.000000 0.000000 0.000000 -88.614731 -2.878659 1.592694 -0.773989 -11.283669 -7.500072 -0.547683 10.396642 -11.778987 26.857082 -27.378707 22.590509 4.372272 -3.303534 -47.684085 0.000000 0.000000 0.000000 -92.670709 2.531597 5.838828 0.408388 -2.554979 -0.540668 5.387824 -5.065918 2.480463 0.013302 0.770581 -0.175282 0.000000 0.000000 0.000000 4.245021 -2.366573 1.098400 -25.757820 -0.924727 -3.443104 0.065618 -60.600949 20.238650 0.000000 0.000000 0.000000 3.794646 -4.111393 0.474425 -1.015639 -1.288184 -7.909314 3.644997 6.101120 -5.207563 43.140646 -22.607156 -43.820650 16.535924 -70.198096 11.783644 0.000000 0.000000 0.000000 6.727546 -2.706896 1.457578 -3.863505 -2.323030 14.715316 9.001905 5.890382 -0.013903 37.790873 39.698084 34.714471 -174.649085 88.796994 165.863644 0.000000 0.000000 0.000000 
11.171877 150.463562 -15.286327 0.000000 0.000000 0.000000 -90.428911 -5.874586 -0.555582 4.740676 31.104483 8.074562 0.063476 -17.986412 -7.603060 20.484244 32.701146 -12.338279 11.291561 -0.114515 8.671794 0.000000 0.000000 0.000000 -88.404416 -2.971690 1.769079 -1.277844 -11.257169 -7.651182 -0.061040 10.663040 -11.886819 26.933550 -27.077238 22.506633 4.122593 -3.312214 -48.072808 0.000000 0.000000 0.000000 -92.368466 2.450788 6.071099 0.517606 -2.717448 -0.862009 5.508706 -4.593476 2.486583 0.020675 0.713375 -0.182873 0.000000 0.000000 0.000000 4.639805 -1.888030 1.152892 -25.299702 -0.928291 -3.608686 -2.005423 -61.164351 19.293659 0.000000 0.000000 0.000000 4.041197 -3.618782 0.596107 -0.985433 -1.786391 -7.695817 3.433588 5.724863 -5.581328 42.195621 -21.534753 -43.697081 15.273678 -70.865788 11.022704 0.000000 0.000000 0.000000 6.945673 -2.338370 1.367033 -3.921223 -2.480922 14.104503 9.784504 5.412283 0.348766 31.705287 41.316156 36.920857 154.643419 87.540506 -163.266164 0.000000 0.000000 0.000000 
11.151126 150.556412 -15.200603 0.000000 0.000000 0.000000 -90.261749 -6.178552 -0.490793 4.686344 30.912582 8.030630 -0.028819 -17.916945 -7.658011 20.924500 32.800686 -12.629587 11.176128 -0.108029 8.574050 0.000000 0.000000 0.000000 -88.164772 -3.174305 1.910098 -1.868792 -11.399972 -7.819892 0.292733 10.703140 -11.990838 27.010576 -26.844621 22.284691 3.940401 -3.405430 -48.534218 0.000000 0.000000 0.000000 -91.927946 2.408724 6.295311 0.865824 -2.816975 -1.316151 5.795465 -3.953469 2.465640 0.051439 0.617735 -0.187808 0.000000 0.000000 0.000000 5.171777 -1.246684 1.229047 -24.638780 -1.112979 -3.601885 -4.511295 -61.879950 18.329636 0.000000 0.000000 0.000000 4.347246 -2.939980 0.680633 -0.864984 -2.196762 -7.373308 3.212413 4.714398 -5.855729 41.000212 -20.285044 -43.292365 13.219474 -71.834028 9.687312 0.000000 0.000000 0.000000 7.233049 -1.813371 1.283030 -3.985549 -2.503709 13.678424 10.295910 4.735032 0.742136 23.788444 42.464871 40.795586 145.329541 85.689340 -153.761806 0.000000 0.000000 0.000000 
11.144830 150.688965 -15.122837 0.000000 0.000000 0.000000 -90.007905 -6.546663 -0.461204 4.615973 30.759709 7.986900 -0.109435 -17.825038 -7.673067 21.398616 32.814148 -12.905837 11.106816 -0.095845 8.522206 0.000000 0.000000 0.000000 -87.891953 -3.487912 1.975169 -2.501535 -11.713230 -7.976461 0.438195 10.521783 -12.065389 26.880741 -26.730044 21.868883 4.063430 -3.665356 -48.994269 0.000000 0.000000 0.000000 -91.423482 2.351291 6.444731 1.521798 -2.796144 -1.830072 6.297603 -3.134336 2.428411 0.108622 0.537843 -0.199591 0.000000 0.000000 0.000000 5.816163 -0.451902 1.299486 -23.805999 -1.654574 -3.303416 -6.834098 -62.916820 17.600571 0.000000 0.000000 0.000000 4.769551 -2.094767 0.716514 -0.635798 -2.409438 -6.960049 3.116433 3.319837 -5.782159 39.564783 -19.426417 -42.436614 10.312318 -72.766827 7.628785 0.000000 0.000000 0.000000 7.648115 -1.093829 1.206056 -4.055428 -2.209243 13.488456 10.561416 4.286362 1.087467 14.775974 42.592233 46.007690 143.351682 83.484583 -151.596199 0.000000 0.000000 0.000000 
11.148099 150.851028 -15.109268 0.000000 0.000000 0.000000 -89.690452 -6.859866 -0.438961 4.546317 30.602000 7.950222 -0.232733 -17.759175 -7.638586 21.732458 32.722357 -13.086517 11.121308 -0.075191 8.521583 0.000000 0.000000 0.000000 -87.570313 -3.794983 2.022279 -3.075471 -12.084004 -8.109850 0.496297 10.258895 -12.093964 26.498129 -26.677252 21.237780 4.587171 -4.072835 -49.399541 0.000000 0.000000 0.000000 -90.913759 2.262285 6.503446 2.450420 -2.629689 -2.339605 7.012691 -2.190448 2.380530 0.132340 0.487028 -0.192125 0.000000 0.000000 0.000000 6.555209 0.454002 1.322420 -22.890076 -2.518192 -2.735708 -8.316646 -64.329221 17.444607 0.000000 0.000000 0.000000 5.358745 -1.130355 0.692119 -0.296875 -2.262324 -6.468156 3.310250 1.771492 -5.584305 37.788749 -19.545148 -40.986674 6.753240 -73.349108 4.952608 0.000000 0.000000 0.000000 8.242021 -0.216802 1.097481 -4.129347 -1.538553 13.475018 11.004932 4.293456 1.427034 5.362353 41.315510 51.848919 145.662335 80.941799 -153.701004 0.000000 0.000000 0.000000 
11.166811 151.012527 -15.177071 0.000000 0.000000 0.000000 -89.312093 -7.047600 -0.423107 4.470022 30.412732 7.934616 -0.443605 -17.735604 -7.564505 21.759881 32.545018 -13.078855 11.259832 -0.054084 8.542339 0.000000 0.000000 0.000000 -87.237123 -3.998762 2.049241 -3.517137 -12.366361 -8.194568 0.538075 10.042195 -12.056798 26.047715 -26.565990 20.541082 5.329252 -4.503361 -49.736782 0.000000 0.000000 0.000000 -90.468827 2.129961 6.411778 3.535050 -2.305961 -2.778468 7.926866 -1.197529 2.307580 0.113201 0.517872 -0.164093 0.000000 0.000000 0.000000 7.384663 1.403062 1.272090 -21.941100 -3.636304 -2.041430 -8.667717 -65.787378 17.886399 0.000000 0.000000 0.000000 6.156060 -0.140802 0.593496 0.127106 -1.627145 -5.921632 3.727411 0.284531 -5.252372 35.687574 -21.026408 -38.839563 2.791540 -73.173797 1.864552 0.000000 0.000000 0.000000 9.027120 0.730215 0.929809 -4.156501 -0.463375 13.540471 11.395593 4.550027 2.023957 -3.100540 38.724884 57.208981 150.406585 78.112448 -158.228039 0.000000 0.000000 0.000000 
11.202050 151.130905 -15.331669 0.000000 0.000000 0.000000 -88.907603 -7.126028 -0.473488 4.338671 30.189781 7.954881 -0.670117 -17.740269 -7.449538 21.530962 32.296795 -12.907160 11.483455 -0.033936 8.512725 0.000000 0.000000 0.000000 -86.941512 -4.045717 2.028392 -3.823672 -12.489844 -8.231899 0.589157 10.012449 -11.961680 25.768098 -26.302838 20.092752 5.853477 -4.766667 -50.011304 0.000000 0.000000 0.000000 -90.136292 1.982549 6.181558 4.651597 -1.883792 -3.089843 8.991370 -0.275868 2.194590 0.077557 0.611165 -0.150969 0.000000 0.000000 0.000000 8.306451 2.261810 1.129017 -20.931320 -4.879023 -1.380638 -7.676639 -67.030944 18.923329 0.000000 0.000000 0.000000 7.128341 0.736919 0.403378 0.618757 -0.542248 -5.339798 4.535807 -1.090737 -4.788904 33.361239 -23.805537 -36.086078 -0.947309 -71.889025 -1.064972 0.000000 0.000000 0.000000 9.991164 1.609829 0.696747 -4.120291 0.874937 13.529547 11.323944 4.868618 2.965841 -9.657902 35.530760 61.265267 155.990155 75.177024 -163.622495 0.000000 0.000000 0.000000 
